<svg id="visual" viewBox="0 0 900 600" width="900" height="600" xmlns="http://www.w3.org/2000/svg" xmlns:xlink="http://www.w3.org/1999/xlink" version="1.1"><rect x="0" y="0" width="900" height="600" fill="#0066FF"></rect><path d="M0 112L69 117L138 120L208 106L277 113L346 112L415 119L485 138L554 116L623 102L692 137L762 103L831 106L900 111L900 601L831 601L762 601L692 601L623 601L554 601L485 601L415 601L346 601L277 601L208 601L138 601L69 601L0 601Z" fill="#0aa6f5"></path><path d="M0 152L69 169L138 161L208 158L277 150L346 138L415 151L485 138L554 151L623 145L692 177L762 181L831 175L900 139L900 601L831 601L762 601L692 601L623 601L554 601L485 601L415 601L346 601L277 601L208 601L138 601L69 601L0 601Z" fill="#00b2f8"></path><path d="M0 181L69 191L138 204L208 219L277 196L346 211L415 196L485 181L554 213L623 187L692 183L762 179L831 204L900 208L900 601L831 601L762 601L692 601L623 601L554 601L485 601L415 601L346 601L277 601L208 601L138 601L69 601L0 601Z" fill="#00bef8"></path><path d="M0 222L69 248L138 227L208 248L277 228L346 252L415 246L485 259L554 251L623 230L692 245L762 235L831 245L900 221L900 601L831 601L762 601L692 601L623 601L554 601L485 601L415 601L346 601L277 601L208 601L138 601L69 601L0 601Z" fill="#00c8f6"></path><path d="M0 275L69 260L138 260L208 275L277 295L346 285L415 286L485 265L554 269L623 271L692 285L762 268L831 272L900 268L900 601L831 601L762 601L692 601L623 601L554 601L485 601L415 601L346 601L277 601L208 601L138 601L69 601L0 601Z" fill="#00d3f2"></path><path d="M0 326L69 306L138 331L208 324L277 332L346 328L415 328L485 334L554 333L623 325L692 326L762 330L831 310L900 308L900 601L831 601L762 601L692 601L623 601L554 601L485 601L415 601L346 601L277 601L208 601L138 601L69 601L0 601Z" fill="#00dced"></path><path d="M0 347L69 371L138 369L208 368L277 360L346 345L415 356L485 370L554 346L623 343L692 354L762 352L831 341L900 357L900 601L831 601L762 601L692 601L623 601L554 601L485 601L415 601L346 601L277 601L208 601L138 601L69 601L0 601Z" fill="#00e6e6"></path><path d="M0 407L69 397L138 393L208 406L277 403L346 383L415 398L485 390L554 396L623 399L692 400L762 395L831 385L900 395L900 601L831 601L762 601L692 601L623 601L554 601L485 601L415 601L346 601L277 601L208 601L138 601L69 601L0 601Z" fill="#00eed7"></path><path d="M0 427L69 432L138 425L208 427L277 427L346 448L415 440L485 434L554 431L623 443L692 435L762 446L831 428L900 429L900 601L831 601L762 601L692 601L623 601L554 601L485 601L415 601L346 601L277 601L208 601L138 601L69 601L0 601Z" fill="#00f5bb"></path><path d="M0 483L69 465L138 462L208 481L277 474L346 463L415 479L485 464L554 471L623 479L692 464L762 469L831 468L900 483L900 601L831 601L762 601L692 601L623 601L554 601L485 601L415 601L346 601L277 601L208 601L138 601L69 601L0 601Z" fill="#00fa96"></path><path d="M0 516L69 521L138 509L208 511L277 516L346 509L415 513L485 508L554 514L623 516L692 503L762 505L831 516L900 519L900 601L831 601L762 601L692 601L623 601L554 601L485 601L415 601L346 601L277 601L208 601L138 601L69 601L0 601Z" fill="#00fe64"></path><path d="M0 551L69 550L138 552L208 550L277 554L346 546L415 545L485 561L554 544L623 549L692 549L762 562L831 562L900 554L900 601L831 601L762 601L692 601L623 601L554 601L485 601L415 601L346 601L277 601L208 601L138 601L69 601L0 601Z" fill="#46ff00"></path></svg>