<svg id="visual" viewBox="0 0 900 600" width="900" height="600" xmlns="http://www.w3.org/2000/svg" xmlns:xlink="http://www.w3.org/1999/xlink" version="1.1"><rect x="0" y="0" width="900" height="600" fill="#001220"></rect><defs><linearGradient id="grad1_0" x1="33.3%" y1="0%" x2="100%" y2="100%"><stop offset="20%" stop-color="#fbae3c" stop-opacity="1"></stop><stop offset="80%" stop-color="#fbae3c" stop-opacity="1"></stop></linearGradient></defs><defs><linearGradient id="grad1_1" x1="33.3%" y1="0%" x2="100%" y2="100%"><stop offset="20%" stop-color="#fbae3c" stop-opacity="1"></stop><stop offset="80%" stop-color="#cc5867" stop-opacity="1"></stop></linearGradient></defs><defs><linearGradient id="grad1_2" x1="33.3%" y1="0%" x2="100%" y2="100%"><stop offset="20%" stop-color="#593762" stop-opacity="1"></stop><stop offset="80%" stop-color="#cc5867" stop-opacity="1"></stop></linearGradient></defs><defs><linearGradient id="grad1_3" x1="33.3%" y1="0%" x2="100%" y2="100%"><stop offset="20%" stop-color="#593762" stop-opacity="1"></stop><stop offset="80%" stop-color="#001220" stop-opacity="1"></stop></linearGradient></defs><defs><linearGradient id="grad2_0" x1="0%" y1="0%" x2="66.7%" y2="100%"><stop offset="20%" stop-color="#fbae3c" stop-opacity="1"></stop><stop offset="80%" stop-color="#fbae3c" stop-opacity="1"></stop></linearGradient></defs><defs><linearGradient id="grad2_1" x1="0%" y1="0%" x2="66.7%" y2="100%"><stop offset="20%" stop-color="#cc5867" stop-opacity="1"></stop><stop offset="80%" stop-color="#fbae3c" stop-opacity="1"></stop></linearGradient></defs><defs><linearGradient id="grad2_2" x1="0%" y1="0%" x2="66.7%" y2="100%"><stop offset="20%" stop-color="#cc5867" stop-opacity="1"></stop><stop offset="80%" stop-color="#593762" stop-opacity="1"></stop></linearGradient></defs><defs><linearGradient id="grad2_3" x1="0%" y1="0%" x2="66.7%" y2="100%"><stop offset="20%" stop-color="#001220" stop-opacity="1"></stop><stop offset="80%" stop-color="#593762" stop-opacity="1"></stop></linearGradient></defs><g transform="translate(900, 0)"><path d="M0 324.5C-35 302.8 -70 281.1 -111.4 268.8C-152.7 256.6 -200.4 254 -229.5 229.5C-258.5 204.9 -269 158.6 -281.8 116.7C-294.5 74.8 -309.5 37.4 -324.5 0L0 0Z" fill="#232745"></path><path d="M0 243.4C-26.3 227.1 -52.5 210.8 -83.5 201.6C-114.5 192.5 -150.3 190.5 -172.1 172.1C-193.9 153.7 -201.8 118.9 -211.3 87.5C-220.9 56.1 -232.1 28.1 -243.4 0L0 0Z" fill="#96446e"></path><path d="M0 162.2C-17.5 151.4 -35 140.5 -55.7 134.4C-76.4 128.3 -100.2 127 -114.7 114.7C-129.3 102.5 -134.5 79.3 -140.9 58.4C-147.3 37.4 -154.8 18.7 -162.2 0L0 0Z" fill="#f17c53"></path><path d="M0 81.1C-8.8 75.7 -17.5 70.3 -27.8 67.2C-38.2 64.2 -50.1 63.5 -57.4 57.4C-64.6 51.2 -67.3 39.6 -70.4 29.2C-73.6 18.7 -77.4 9.4 -81.1 0L0 0Z" fill="#fbae3c"></path></g><g transform="translate(0, 600)"><path d="M0 -324.5C44.7 -322.6 89.3 -320.7 124.2 -299.8C159 -278.9 184 -238.9 204.4 -204.4C224.7 -169.8 240.4 -140.7 259.6 -107.5C278.9 -74.4 301.7 -37.2 324.5 0L0 0Z" fill="#232745"></path><path d="M0 -243.4C33.5 -242 67 -240.5 93.1 -224.8C119.3 -209.2 138 -179.2 153.3 -153.3C168.5 -127.4 180.3 -105.5 194.7 -80.7C209.1 -55.8 226.3 -27.9 243.4 0L0 0Z" fill="#96446e"></path><path d="M0 -162.2C22.3 -161.3 44.7 -160.4 62.1 -149.9C79.5 -139.4 92 -119.4 102.2 -102.2C112.3 -84.9 120.2 -70.3 129.8 -53.8C139.4 -37.2 150.8 -18.6 162.2 0L0 0Z" fill="#f17c53"></path><path d="M0 -81.1C11.2 -80.7 22.3 -80.2 31 -74.9C39.8 -69.7 46 -59.7 51.1 -51.1C56.2 -42.5 60.1 -35.2 64.9 -26.9C69.7 -18.6 75.4 -9.3 81.1 0L0 0Z" fill="#fbae3c"></path></g></svg>