<svg id="visual" viewBox="0 0 900 600" width="900" height="600" xmlns="http://www.w3.org/2000/svg" xmlns:xlink="http://www.w3.org/1999/xlink" version="1.1"><rect x="0" y="0" width="900" height="600" fill="#001220"></rect><path d="M0 357L21.5 367.2C43 377.3 86 397.7 128.8 403C171.7 408.3 214.3 398.7 257.2 387.5C300 376.3 343 363.7 385.8 358.8C428.7 354 471.3 357 514.2 367.2C557 377.3 600 394.7 642.8 404C685.7 413.3 728.3 414.7 771.2 419.5C814 424.3 857 432.7 878.5 436.8L900 441L900 601L878.5 601C857 601 814 601 771.2 601C728.3 601 685.7 601 642.8 601C600 601 557 601 514.2 601C471.3 601 428.7 601 385.8 601C343 601 300 601 257.2 601C214.3 601 171.7 601 128.8 601C86 601 43 601 21.5 601L0 601Z" fill="#fa7268"></path><path d="M0 465L21.5 463C43 461 86 457 128.8 453.7C171.7 450.3 214.3 447.7 257.2 447.2C300 446.7 343 448.3 385.8 452.8C428.7 457.3 471.3 464.7 514.2 468.5C557 472.3 600 472.7 642.8 468.5C685.7 464.3 728.3 455.7 771.2 442.7C814 429.7 857 412.3 878.5 403.7L900 395L900 601L878.5 601C857 601 814 601 771.2 601C728.3 601 685.7 601 642.8 601C600 601 557 601 514.2 601C471.3 601 428.7 601 385.8 601C343 601 300 601 257.2 601C214.3 601 171.7 601 128.8 601C86 601 43 601 21.5 601L0 601Z" fill="#ef5f67"></path><path d="M0 437L21.5 441C43 445 86 453 128.8 463.7C171.7 474.3 214.3 487.7 257.2 486C300 484.3 343 467.7 385.8 457.2C428.7 446.7 471.3 442.3 514.2 449C557 455.7 600 473.3 642.8 481.3C685.7 489.3 728.3 487.7 771.2 478.7C814 469.7 857 453.3 878.5 445.2L900 437L900 601L878.5 601C857 601 814 601 771.2 601C728.3 601 685.7 601 642.8 601C600 601 557 601 514.2 601C471.3 601 428.7 601 385.8 601C343 601 300 601 257.2 601C214.3 601 171.7 601 128.8 601C86 601 43 601 21.5 601L0 601Z" fill="#e34c67"></path><path d="M0 510L21.5 515C43 520 86 530 128.8 528.2C171.7 526.3 214.3 512.7 257.2 507.3C300 502 343 505 385.8 511C428.7 517 471.3 526 514.2 523.5C557 521 600 507 642.8 501.3C685.7 495.7 728.3 498.3 771.2 502.5C814 506.7 857 512.3 878.5 515.2L900 518L900 601L878.5 601C857 601 814 601 771.2 601C728.3 601 685.7 601 642.8 601C600 601 557 601 514.2 601C471.3 601 428.7 601 385.8 601C343 601 300 601 257.2 601C214.3 601 171.7 601 128.8 601C86 601 43 601 21.5 601L0 601Z" fill="#d53867"></path><path d="M0 555L21.5 552.8C43 550.7 86 546.3 128.8 542.2C171.7 538 214.3 534 257.2 535.5C300 537 343 544 385.8 549.2C428.7 554.3 471.3 557.7 514.2 553.8C557 550 600 539 642.8 533.3C685.7 527.7 728.3 527.3 771.2 532C814 536.7 857 546.3 878.5 551.2L900 556L900 601L878.5 601C857 601 814 601 771.2 601C728.3 601 685.7 601 642.8 601C600 601 557 601 514.2 601C471.3 601 428.7 601 385.8 601C343 601 300 601 257.2 601C214.3 601 171.7 601 128.8 601C86 601 43 601 21.5 601L0 601Z" fill="#c62368"></path></svg>